<mxfile host="app.diagrams.net" modified="2023-11-21T08:33:25.958Z" agent="Mozilla/5.0 (Windows NT 10.0; Win64; x64) AppleWebKit/537.36 (KHTML, like Gecko) Chrome/119.0.0.0 Safari/537.36 Edg/119.0.0.0" etag="aZ4eSiO75Ww1H-biF136" version="22.1.3" type="device">
  <diagram name="Page-1" id="Wli4VPFNiPU2SU2I3E8u">
    <mxGraphModel dx="687" dy="3673" grid="1" gridSize="10" guides="1" tooltips="1" connect="1" arrows="1" fold="1" page="1" pageScale="1" pageWidth="2339" pageHeight="3300" math="0" shadow="0">
      <root>
        <mxCell id="0" />
        <mxCell id="1" parent="0" />
        <mxCell id="vDlcmsHh33bK4QmpVzsn-1" value="" style="rounded=0;whiteSpace=wrap;html=1;" vertex="1" parent="1">
          <mxGeometry x="115" y="-2380" width="175" height="40" as="geometry" />
        </mxCell>
        <mxCell id="vDlcmsHh33bK4QmpVzsn-2" value="&lt;b style=&quot;&quot;&gt;&lt;u&gt;Number&lt;/u&gt;&lt;/b&gt;" style="text;html=1;align=center;verticalAlign=middle;resizable=0;points=[];autosize=1;strokeColor=none;fillColor=none;" vertex="1" parent="1">
          <mxGeometry x="105" y="-2375" width="70" height="30" as="geometry" />
        </mxCell>
        <mxCell id="vDlcmsHh33bK4QmpVzsn-3" value="&lt;b&gt;Sales_Office&lt;/b&gt;" style="text;html=1;align=center;verticalAlign=middle;resizable=0;points=[];autosize=1;strokeColor=none;fillColor=none;" vertex="1" parent="1">
          <mxGeometry x="110" y="-2410" width="100" height="30" as="geometry" />
        </mxCell>
        <mxCell id="vDlcmsHh33bK4QmpVzsn-7" value="" style="endArrow=none;html=1;rounded=0;" edge="1" parent="1">
          <mxGeometry width="50" height="50" relative="1" as="geometry">
            <mxPoint x="170" y="-2380" as="sourcePoint" />
            <mxPoint x="170" y="-2340" as="targetPoint" />
          </mxGeometry>
        </mxCell>
        <mxCell id="vDlcmsHh33bK4QmpVzsn-8" value="" style="endArrow=none;html=1;rounded=0;" edge="1" parent="1">
          <mxGeometry width="50" height="50" relative="1" as="geometry">
            <mxPoint x="230" y="-2380" as="sourcePoint" />
            <mxPoint x="230" y="-2340" as="targetPoint" />
          </mxGeometry>
        </mxCell>
        <mxCell id="vDlcmsHh33bK4QmpVzsn-14" value="&lt;b&gt;Location&lt;/b&gt;" style="text;html=1;align=center;verticalAlign=middle;resizable=0;points=[];autosize=1;strokeColor=none;fillColor=none;" vertex="1" parent="1">
          <mxGeometry x="225" y="-2375" width="70" height="30" as="geometry" />
        </mxCell>
        <mxCell id="vDlcmsHh33bK4QmpVzsn-16" value="&lt;b&gt;Emp_ID&lt;/b&gt;" style="text;html=1;align=center;verticalAlign=middle;resizable=0;points=[];autosize=1;strokeColor=none;fillColor=none;" vertex="1" parent="1">
          <mxGeometry x="165" y="-2375" width="70" height="30" as="geometry" />
        </mxCell>
        <mxCell id="vDlcmsHh33bK4QmpVzsn-167" value="" style="endArrow=none;dashed=1;html=1;rounded=0;" edge="1" parent="1">
          <mxGeometry width="50" height="50" relative="1" as="geometry">
            <mxPoint x="225" y="-2345.69" as="sourcePoint" />
            <mxPoint x="175" y="-2345.69" as="targetPoint" />
          </mxGeometry>
        </mxCell>
        <mxCell id="vDlcmsHh33bK4QmpVzsn-168" value="" style="rounded=0;whiteSpace=wrap;html=1;" vertex="1" parent="1">
          <mxGeometry x="515" y="-2380" width="175" height="40" as="geometry" />
        </mxCell>
        <mxCell id="vDlcmsHh33bK4QmpVzsn-169" value="&lt;b style=&quot;&quot;&gt;&lt;u&gt;ID&lt;/u&gt;&lt;/b&gt;" style="text;html=1;align=center;verticalAlign=middle;resizable=0;points=[];autosize=1;strokeColor=none;fillColor=none;" vertex="1" parent="1">
          <mxGeometry x="520" y="-2375" width="40" height="30" as="geometry" />
        </mxCell>
        <mxCell id="vDlcmsHh33bK4QmpVzsn-170" value="&lt;b&gt;Employee&lt;/b&gt;" style="text;html=1;align=center;verticalAlign=middle;resizable=0;points=[];autosize=1;strokeColor=none;fillColor=none;" vertex="1" parent="1">
          <mxGeometry x="520" y="-2410" width="80" height="30" as="geometry" />
        </mxCell>
        <mxCell id="vDlcmsHh33bK4QmpVzsn-171" value="" style="endArrow=none;html=1;rounded=0;" edge="1" parent="1">
          <mxGeometry width="50" height="50" relative="1" as="geometry">
            <mxPoint x="570" y="-2380" as="sourcePoint" />
            <mxPoint x="570" y="-2340" as="targetPoint" />
          </mxGeometry>
        </mxCell>
        <mxCell id="vDlcmsHh33bK4QmpVzsn-172" value="" style="endArrow=none;html=1;rounded=0;" edge="1" parent="1">
          <mxGeometry width="50" height="50" relative="1" as="geometry">
            <mxPoint x="630" y="-2380" as="sourcePoint" />
            <mxPoint x="630" y="-2340" as="targetPoint" />
          </mxGeometry>
        </mxCell>
        <mxCell id="vDlcmsHh33bK4QmpVzsn-173" value="&lt;b&gt;Name&lt;/b&gt;" style="text;html=1;align=center;verticalAlign=middle;resizable=0;points=[];autosize=1;strokeColor=none;fillColor=none;" vertex="1" parent="1">
          <mxGeometry x="630" y="-2375" width="60" height="30" as="geometry" />
        </mxCell>
        <mxCell id="vDlcmsHh33bK4QmpVzsn-174" value="&lt;b&gt;SO_Num&lt;/b&gt;" style="text;html=1;align=center;verticalAlign=middle;resizable=0;points=[];autosize=1;strokeColor=none;fillColor=none;" vertex="1" parent="1">
          <mxGeometry x="565" y="-2375" width="70" height="30" as="geometry" />
        </mxCell>
        <mxCell id="vDlcmsHh33bK4QmpVzsn-175" value="" style="endArrow=none;dashed=1;html=1;rounded=0;" edge="1" parent="1">
          <mxGeometry width="50" height="50" relative="1" as="geometry">
            <mxPoint x="625" y="-2345.69" as="sourcePoint" />
            <mxPoint x="575" y="-2345.69" as="targetPoint" />
          </mxGeometry>
        </mxCell>
        <mxCell id="vDlcmsHh33bK4QmpVzsn-176" value="" style="rounded=0;whiteSpace=wrap;html=1;" vertex="1" parent="1">
          <mxGeometry x="117.5" y="-2240" width="292.5" height="40" as="geometry" />
        </mxCell>
        <mxCell id="vDlcmsHh33bK4QmpVzsn-177" value="&lt;b style=&quot;&quot;&gt;&lt;u&gt;Number&lt;/u&gt;&lt;/b&gt;" style="text;html=1;align=center;verticalAlign=middle;resizable=0;points=[];autosize=1;strokeColor=none;fillColor=none;" vertex="1" parent="1">
          <mxGeometry x="107.5" y="-2235" width="70" height="30" as="geometry" />
        </mxCell>
        <mxCell id="vDlcmsHh33bK4QmpVzsn-178" value="&lt;b&gt;Property&lt;/b&gt;" style="text;html=1;align=center;verticalAlign=middle;resizable=0;points=[];autosize=1;strokeColor=none;fillColor=none;" vertex="1" parent="1">
          <mxGeometry x="127.5" y="-2270" width="70" height="30" as="geometry" />
        </mxCell>
        <mxCell id="vDlcmsHh33bK4QmpVzsn-179" value="" style="endArrow=none;html=1;rounded=0;" edge="1" parent="1">
          <mxGeometry width="50" height="50" relative="1" as="geometry">
            <mxPoint x="172.5" y="-2240" as="sourcePoint" />
            <mxPoint x="172.5" y="-2200" as="targetPoint" />
          </mxGeometry>
        </mxCell>
        <mxCell id="vDlcmsHh33bK4QmpVzsn-180" value="" style="endArrow=none;html=1;rounded=0;" edge="1" parent="1">
          <mxGeometry width="50" height="50" relative="1" as="geometry">
            <mxPoint x="232.5" y="-2240" as="sourcePoint" />
            <mxPoint x="232.5" y="-2200" as="targetPoint" />
          </mxGeometry>
        </mxCell>
        <mxCell id="vDlcmsHh33bK4QmpVzsn-181" value="&lt;b&gt;Address&lt;/b&gt;" style="text;html=1;align=center;verticalAlign=middle;resizable=0;points=[];autosize=1;strokeColor=none;fillColor=none;" vertex="1" parent="1">
          <mxGeometry x="227.5" y="-2235" width="70" height="30" as="geometry" />
        </mxCell>
        <mxCell id="vDlcmsHh33bK4QmpVzsn-182" value="&lt;b&gt;SO_num&lt;/b&gt;" style="text;html=1;align=center;verticalAlign=middle;resizable=0;points=[];autosize=1;strokeColor=none;fillColor=none;" vertex="1" parent="1">
          <mxGeometry x="165" y="-2235" width="70" height="30" as="geometry" />
        </mxCell>
        <mxCell id="vDlcmsHh33bK4QmpVzsn-183" value="" style="endArrow=none;dashed=1;html=1;rounded=0;" edge="1" parent="1">
          <mxGeometry width="50" height="50" relative="1" as="geometry">
            <mxPoint x="227.5" y="-2205.69" as="sourcePoint" />
            <mxPoint x="177.5" y="-2205.69" as="targetPoint" />
          </mxGeometry>
        </mxCell>
        <mxCell id="vDlcmsHh33bK4QmpVzsn-184" value="&lt;b&gt;City&lt;/b&gt;" style="text;html=1;align=center;verticalAlign=middle;resizable=0;points=[];autosize=1;strokeColor=none;fillColor=none;" vertex="1" parent="1">
          <mxGeometry x="280" y="-2235" width="50" height="30" as="geometry" />
        </mxCell>
        <mxCell id="vDlcmsHh33bK4QmpVzsn-185" value="&lt;b&gt;State&amp;nbsp;&amp;nbsp;&lt;/b&gt;" style="text;html=1;align=center;verticalAlign=middle;resizable=0;points=[];autosize=1;strokeColor=none;fillColor=none;" vertex="1" parent="1">
          <mxGeometry x="315" y="-2235" width="60" height="30" as="geometry" />
        </mxCell>
        <mxCell id="vDlcmsHh33bK4QmpVzsn-186" value="&lt;b&gt;Code&lt;/b&gt;" style="text;html=1;align=center;verticalAlign=middle;resizable=0;points=[];autosize=1;strokeColor=none;fillColor=none;" vertex="1" parent="1">
          <mxGeometry x="360" y="-2235" width="50" height="30" as="geometry" />
        </mxCell>
        <mxCell id="vDlcmsHh33bK4QmpVzsn-188" value="" style="endArrow=none;html=1;rounded=0;" edge="1" parent="1">
          <mxGeometry width="50" height="50" relative="1" as="geometry">
            <mxPoint x="320" y="-2200" as="sourcePoint" />
            <mxPoint x="320.1" y="-2240" as="targetPoint" />
          </mxGeometry>
        </mxCell>
        <mxCell id="vDlcmsHh33bK4QmpVzsn-189" value="" style="endArrow=none;html=1;rounded=0;exitX=0.798;exitY=1.106;exitDx=0;exitDy=0;exitPerimeter=0;" edge="1" parent="1">
          <mxGeometry width="50" height="50" relative="1" as="geometry">
            <mxPoint x="290" y="-2200" as="sourcePoint" />
            <mxPoint x="290" y="-2238" as="targetPoint" />
          </mxGeometry>
        </mxCell>
        <mxCell id="vDlcmsHh33bK4QmpVzsn-190" value="" style="endArrow=none;html=1;rounded=0;" edge="1" parent="1">
          <mxGeometry width="50" height="50" relative="1" as="geometry">
            <mxPoint x="360" y="-2200" as="sourcePoint" />
            <mxPoint x="360.1" y="-2240" as="targetPoint" />
          </mxGeometry>
        </mxCell>
        <mxCell id="vDlcmsHh33bK4QmpVzsn-192" value="" style="rounded=0;whiteSpace=wrap;html=1;" vertex="1" parent="1">
          <mxGeometry x="515" y="-2240" width="100" height="40" as="geometry" />
        </mxCell>
        <mxCell id="vDlcmsHh33bK4QmpVzsn-193" value="&lt;b style=&quot;&quot;&gt;&lt;u&gt;ID&lt;/u&gt;&lt;/b&gt;" style="text;html=1;align=center;verticalAlign=middle;resizable=0;points=[];autosize=1;strokeColor=none;fillColor=none;" vertex="1" parent="1">
          <mxGeometry x="520" y="-2235" width="40" height="30" as="geometry" />
        </mxCell>
        <mxCell id="vDlcmsHh33bK4QmpVzsn-194" value="&lt;b&gt;Owner&lt;/b&gt;" style="text;html=1;align=center;verticalAlign=middle;resizable=0;points=[];autosize=1;strokeColor=none;fillColor=none;" vertex="1" parent="1">
          <mxGeometry x="520" y="-2270" width="60" height="30" as="geometry" />
        </mxCell>
        <mxCell id="vDlcmsHh33bK4QmpVzsn-195" value="" style="endArrow=none;html=1;rounded=0;" edge="1" parent="1">
          <mxGeometry width="50" height="50" relative="1" as="geometry">
            <mxPoint x="570" y="-2240" as="sourcePoint" />
            <mxPoint x="570" y="-2200" as="targetPoint" />
          </mxGeometry>
        </mxCell>
        <mxCell id="vDlcmsHh33bK4QmpVzsn-197" value="&lt;b&gt;Name&lt;/b&gt;" style="text;html=1;align=center;verticalAlign=middle;resizable=0;points=[];autosize=1;strokeColor=none;fillColor=none;" vertex="1" parent="1">
          <mxGeometry x="560" y="-2235" width="60" height="30" as="geometry" />
        </mxCell>
        <mxCell id="vDlcmsHh33bK4QmpVzsn-200" value="" style="rounded=0;whiteSpace=wrap;html=1;" vertex="1" parent="1">
          <mxGeometry x="515" y="-2120" width="175" height="40" as="geometry" />
        </mxCell>
        <mxCell id="vDlcmsHh33bK4QmpVzsn-201" value="&lt;b style=&quot;&quot;&gt;&lt;u&gt;P_ID&lt;/u&gt;&lt;/b&gt;" style="text;html=1;align=center;verticalAlign=middle;resizable=0;points=[];autosize=1;strokeColor=none;fillColor=none;" vertex="1" parent="1">
          <mxGeometry x="515" y="-2115" width="50" height="30" as="geometry" />
        </mxCell>
        <mxCell id="vDlcmsHh33bK4QmpVzsn-202" value="&lt;b&gt;Property_Owner&lt;/b&gt;" style="text;html=1;align=center;verticalAlign=middle;resizable=0;points=[];autosize=1;strokeColor=none;fillColor=none;" vertex="1" parent="1">
          <mxGeometry x="500" y="-2150" width="120" height="30" as="geometry" />
        </mxCell>
        <mxCell id="vDlcmsHh33bK4QmpVzsn-203" value="" style="endArrow=none;html=1;rounded=0;" edge="1" parent="1">
          <mxGeometry width="50" height="50" relative="1" as="geometry">
            <mxPoint x="570" y="-2120" as="sourcePoint" />
            <mxPoint x="570" y="-2080" as="targetPoint" />
          </mxGeometry>
        </mxCell>
        <mxCell id="vDlcmsHh33bK4QmpVzsn-204" value="" style="endArrow=none;html=1;rounded=0;" edge="1" parent="1">
          <mxGeometry width="50" height="50" relative="1" as="geometry">
            <mxPoint x="630" y="-2120" as="sourcePoint" />
            <mxPoint x="630" y="-2080" as="targetPoint" />
          </mxGeometry>
        </mxCell>
        <mxCell id="vDlcmsHh33bK4QmpVzsn-205" value="&lt;b&gt;Percent&lt;/b&gt;" style="text;html=1;align=center;verticalAlign=middle;resizable=0;points=[];autosize=1;strokeColor=none;fillColor=none;" vertex="1" parent="1">
          <mxGeometry x="625" y="-2115" width="70" height="30" as="geometry" />
        </mxCell>
        <mxCell id="vDlcmsHh33bK4QmpVzsn-206" value="&lt;b&gt;&lt;u&gt;O_ID&lt;/u&gt;&lt;/b&gt;" style="text;html=1;align=center;verticalAlign=middle;resizable=0;points=[];autosize=1;strokeColor=none;fillColor=none;" vertex="1" parent="1">
          <mxGeometry x="575" y="-2115" width="50" height="30" as="geometry" />
        </mxCell>
        <mxCell id="vDlcmsHh33bK4QmpVzsn-207" value="" style="endArrow=none;dashed=1;html=1;rounded=0;" edge="1" parent="1">
          <mxGeometry width="50" height="50" relative="1" as="geometry">
            <mxPoint x="625" y="-2085.69" as="sourcePoint" />
            <mxPoint x="575" y="-2085.69" as="targetPoint" />
          </mxGeometry>
        </mxCell>
        <mxCell id="vDlcmsHh33bK4QmpVzsn-208" value="" style="endArrow=none;dashed=1;html=1;rounded=0;" edge="1" parent="1">
          <mxGeometry width="50" height="50" relative="1" as="geometry">
            <mxPoint x="570" y="-2085.69" as="sourcePoint" />
            <mxPoint x="520" y="-2085.69" as="targetPoint" />
          </mxGeometry>
        </mxCell>
        <mxCell id="vDlcmsHh33bK4QmpVzsn-209" value="" style="endArrow=classic;html=1;rounded=0;exitX=0.285;exitY=1.037;exitDx=0;exitDy=0;exitPerimeter=0;entryX=0.14;entryY=1.089;entryDx=0;entryDy=0;entryPerimeter=0;" edge="1" parent="1" source="vDlcmsHh33bK4QmpVzsn-176" target="vDlcmsHh33bK4QmpVzsn-1">
          <mxGeometry width="50" height="50" relative="1" as="geometry">
            <mxPoint x="220" y="-2130" as="sourcePoint" />
            <mxPoint x="480" y="-2280" as="targetPoint" />
            <Array as="points">
              <mxPoint x="200" y="-2160" />
              <mxPoint x="440" y="-2160" />
              <mxPoint x="440" y="-2320" />
              <mxPoint x="140" y="-2320" />
            </Array>
          </mxGeometry>
        </mxCell>
        <mxCell id="vDlcmsHh33bK4QmpVzsn-210" value="" style="endArrow=classic;html=1;rounded=0;exitX=-0.029;exitY=0.58;exitDx=0;exitDy=0;exitPerimeter=0;entryX=0.079;entryY=1.077;entryDx=0;entryDy=0;entryPerimeter=0;" edge="1" parent="1" source="vDlcmsHh33bK4QmpVzsn-201" target="vDlcmsHh33bK4QmpVzsn-176">
          <mxGeometry width="50" height="50" relative="1" as="geometry">
            <mxPoint x="380" y="-2140" as="sourcePoint" />
            <mxPoint x="430" y="-2190" as="targetPoint" />
            <Array as="points">
              <mxPoint x="140" y="-2098" />
            </Array>
          </mxGeometry>
        </mxCell>
        <mxCell id="vDlcmsHh33bK4QmpVzsn-211" value="" style="endArrow=classic;html=1;rounded=0;entryX=0.25;entryY=1;entryDx=0;entryDy=0;" edge="1" parent="1" target="vDlcmsHh33bK4QmpVzsn-192">
          <mxGeometry width="50" height="50" relative="1" as="geometry">
            <mxPoint x="600" y="-2080" as="sourcePoint" />
            <mxPoint x="540" y="-2190" as="targetPoint" />
            <Array as="points">
              <mxPoint x="600" y="-2040" />
              <mxPoint x="720" y="-2040" />
              <mxPoint x="720" y="-2160" />
              <mxPoint x="540" y="-2160" />
            </Array>
          </mxGeometry>
        </mxCell>
        <mxCell id="vDlcmsHh33bK4QmpVzsn-212" value="" style="endArrow=classic;html=1;rounded=0;exitX=0.907;exitY=0.946;exitDx=0;exitDy=0;exitPerimeter=0;" edge="1" parent="1" source="vDlcmsHh33bK4QmpVzsn-3">
          <mxGeometry width="50" height="50" relative="1" as="geometry">
            <mxPoint x="380" y="-2260" as="sourcePoint" />
            <mxPoint x="510" y="-2360" as="targetPoint" />
            <Array as="points">
              <mxPoint x="200" y="-2420" />
              <mxPoint x="480" y="-2420" />
              <mxPoint x="480" y="-2360" />
            </Array>
          </mxGeometry>
        </mxCell>
        <mxCell id="vDlcmsHh33bK4QmpVzsn-213" value="" style="endArrow=classic;html=1;rounded=0;exitX=1.016;exitY=0.982;exitDx=0;exitDy=0;exitPerimeter=0;" edge="1" parent="1" source="vDlcmsHh33bK4QmpVzsn-170">
          <mxGeometry width="50" height="50" relative="1" as="geometry">
            <mxPoint x="615" y="-2400" as="sourcePoint" />
            <mxPoint x="110" y="-2360" as="targetPoint" />
            <Array as="points">
              <mxPoint x="600" y="-2470" />
              <mxPoint x="70" y="-2470" />
              <mxPoint x="70" y="-2360" />
            </Array>
          </mxGeometry>
        </mxCell>
      </root>
    </mxGraphModel>
  </diagram>
</mxfile>
